<svg xmlns="http://www.w3.org/2000/svg" version="1.1" xmlns:xlink="http://www.w3.org/1999/xlink" viewBox="0 0 1422 800" style="overflow: hidden; display: block;" width="1422" height="800"><defs><linearGradient id="dddraw-gradient" x1="711" y1="-400" x2="711" y2="800" spreadMethod="pad" gradientUnits="userSpaceOnUse"><stop offset="0%" stop-color="hsl(184, 74%, 44%)" stop-opacity="1"></stop><stop offset="100%" stop-color="hsl(332, 87%, 70%)" stop-opacity="1"></stop></linearGradient></defs><g id="two-0" transform="matrix(1 0 0 1 0 0)" opacity="1"></g><path d="M 373.3303725048965 333.2146068066315 Q 373.3303725048965 333.2146068066315 381.5143763023059 333.3112948645187 389.6983800997153 333.4079829224059 395.96994462534724 338.28075571498096 402.24150915097925 343.153528507556 409.728838858098 350.9531219395492 417.21616856521683 358.7527153715424 422.1854009202617 363.57261853590364 427.1546332753066 368.3925217002649 431.45916025389016 375.4364958603203 435.7636872324737 382.48047002037566 440.39890618353775 389.55901088558096 445.0341251346018 396.63755175078626 451.7334910478077 402.42818918814305 458.4328569610136 408.2188266254998 461.3807635121725 413.90637368409205 464.32867006333134 419.5939207426843 470.20027424565404 423.4214859936112 476.07187842797674 427.2490512445381 482.1479543695988 433.4803195522033 488.22403031122076 439.7115878598685 493.75280412008135 445.2486232930381 499.281577928942 450.78565872620777 504.46554473728486 456.09858584261053 509.6495115456278 461.4115129590133 514.5535719538976 465.32503726869874 519.4576323621675 469.2385615783842 525.6269987105945 475.30706171439266 531.7963650590215 481.37556185040114 537.1932069870835 485.7727485701668 542.5900489151455 490.1699352899325 547.7183175137852 495.8641980905687 552.846586112425 501.5584608912049 558.2145698624395 506.26854025233126 563.5825536124538 510.9786196134577 568.2234911302742 516.4599609380541 572.8644286480944 521.9413022626507 578.7476635696621 525.8609992003242 584.6308984912298 529.7806961379978 590.0121732911844 535.0045838847924 595.3934480911388 540.228471631587 601.637334650226 547.4961897016799 607.8812212093133 554.7639077717729 612.3399665247027 559.3658413692631 616.7987118400922 563.9677749667534 621.9436437871575 571.2951110866345 627.0885757342227 578.6224472065156 630.8674471238492 586.5175439749639 634.6463185134758 594.4126407434121 638.9781619714057 600.0389485758988 643.3100054293357 605.6652564083854 647.0451848395373 613.1713274572312 650.7803642497391 620.6773985060771 654.3472964290131 627.5077403916644 657.9142286082872 634.3380822772516 660.9137199931738 641.7720927366599 663.9132113780605 649.2061031960682 666.9148590204288 655.192198364976 669.916506662797 661.1782935338838 662.5861611480748 657.6011696271923 655.2558156333524 654.0240457205009 647.7461754098636 652.5161821265548 640.2365351863747 651.0083185326087 644.1017441626946 644.0255567216468 647.9669531390145 637.0427949106848 651.6844009474253 631.3293444260266 655.401848755836 625.6158939413683 659.5077486213517 617.2915351928259 663.6136484868673 608.9671764442835 667.3251861326428 602.9991234853542 671.0367237784183 597.0310705264247 677.123621049129 585.6598229147583 683.2105183198399 574.2885753030918 687.0826526017424 565.5903778943042 690.9547868836448 556.8921804855166 694.2165643708772 550.3489409977133 697.4783418581095 543.8057015099098 700.8684003786875 535.6064944443948 704.2584588992655 527.4072873788798 708.7905610728853 516.8533686259077 713.322663246505 506.2994498729356 717.3181511435262 495.71091817351873 721.3136390405474 485.1223864741018 725.4032312374935 478.40973565039815 729.4928234344396 471.6970848266945 734.2378624575774 463.5946960619755 738.9829014807151 455.49230729725656 743.0603610934415 446.3401073064923 747.137820706168 437.1879073157281 751.959870710054 428.576637997121 756.78192071394 419.96536867851387 760.2412181515067 413.1476324673819 763.7005155890733 406.32989625625 768.3407797766724 398.9997928529694 772.9810439642716 391.6696894496888 777.5461780622281 384.89866057766733 782.1113121601845 378.12763170564585 787.0776631981615 370.406353908412 792.0440142361385 362.6850761111781 796.7940985641253 356.70563909624894 801.544182892112 350.7262020813198 807.1561543586079 341.4646549541882 812.7681258251038 332.2031078270565 818.1244293412147 324.74285104132434 823.4807328573257 317.28259425559224 827.7040610554654 310.020578378168 831.9273892536052 302.7585625007438 836.7137933632068 296.75143058405826 841.5001974728085 290.74429866737273 846.6447466269415 282.54357908945144 851.7892957810744 274.3428595115301 855.416217683305 268.98369779179893 859.0431395855356 263.62453607206777 865.1320070987115 257.95812718762716 871.2208746118873 252.2917183031866 877.7189104949639 244.2385746607889 884.2169463780406 236.18543101839126 888.8298533154883 230.44897167778822 893.4427602529361 224.7125123371852 898.5679456451933 216.75925534786546 903.6931310374504 208.80599835854574 910.2534583453129 200.2286485305379 916.8137856531754 191.65129870253003 921.1174181892984 186.84304155598306 925.4210507254213 182.03478440943613 931.0714735566924 175.01260142167638 936.7218963879633 167.9904184339166 942.3030250634201 161.2544607840253 947.8841537388771 154.51850313413397 952.7064200303548 148.58002855050523 957.5286863218324 142.64155396687653 963.1720960064704 136.75089187548247 968.8155056911082 130.8602297840884 975.1219696217172 124.49058205052116 981.428433552326 118.1209343169539 987.7565029379654 111.90053500422778 994.0845723236047 105.68013569150163 999.51319995502 99.24835497783553 1004.9418275864354 92.81657426416943 1010.2513890240186 88.22409705802771 1015.5609504616019 83.63161985188599 1022.0163517660374 79.1703648099112 1028.4717530704727 74.70910976793644 1035.9684337723938 68.59406454741868 1043.4651144743152 62.47901932690092 1048.6456452435975 58.839044048087615 1053.8261760128798 55.199068769274305 1062.7090312489531 48.84757855877134 1071.5918864850262 42.49608834826837 1078.4363779109904 39.63075853219559 1085.2808693369543 36.76542871612281 1091.8675748266703 34.84038401505058 1098.4542803163863 32.91533931397835 1105.4252875346524 32.354851697940504 1112.3962947529187 31.794364081902657 1119.1700405061629 31.540741657107127 1125.9437862594073 31.287119232311593 1125.9480490021324 31.28973247253363 1125.9523117448578 31.292345712755665 1125.956574487583 31.2949589529777 1125.9608372303082 31.297572193199738 1124.2276537134308 35.781366180324596 1122.494470196553 40.26516016744946 1119.510269276854 46.65170761990271 1116.5260683571548 53.03825507235595 1112.878885325089 58.879266554337896 1109.2317022930233 64.72027803631984 1102.3797956364035 72.4826421074768 1095.5278889797837 80.24500617863379 1091.0174187382888 85.51513470617645 1086.506948496794 90.78526323371912 1081.2782255478319 95.44248766502541 1076.0495025988696 100.0997120963317 1068.6256302885672 106.01750572894996 1061.201757978265 111.93529936156821 1055.7250451437803 115.8391159955053 1050.2483323092956 119.74293262944236 1045.075418245701 123.78017761777696 1039.9025041821064 127.81742260611156 1033.5059353758074 135.28405812819813 1027.1093665695082 142.7506936502847 1021.7437184676451 147.9089618590009 1016.3780703657818 153.06723006771708 1010.2288237972264 159.23566675569532 1004.0795772286708 165.4041034436736 999.358369811669 170.282784795244 994.6371623946674 175.1614661468144 989.6169383442252 181.30613279795597 984.596714293783 187.4507994490975 979.1461634381876 194.04040149259464 973.6956125825922 200.6300035360918 968.8262887670339 206.71643979505325 963.9569649514758 212.80287605401472 957.2185609759244 219.7029932545157 950.4801570003731 226.60311045501666 946.1740326532163 234.0399318112414 941.8679083060595 241.47675316746614 936.4144437114628 248.99472453089678 930.9609791168662 256.5126958943274 926.1498016565762 262.4358888511117 921.3386241962862 268.359081807896 916.7801665018446 274.0385143165647 912.2217088074032 279.71794682523335 903.1820106207128 289.4086058492215 894.1423124340225 299.0992648732096 890.9184195719238 304.56748743321475 887.694526709825 310.0357099932199 880.9645795229316 318.95751609737613 874.2346323360381 327.87932220153243 869.7595156446048 335.55487379892804 865.2843989531715 343.23042539632365 861.7986264546332 348.6256561843663 858.3128539560948 354.0208869724089 854.4639083021491 359.2418032450544 850.6149626482033 364.46271951769995 845.0058196935831 373.25701648618906 839.3966767389628 382.05131345467817 833.9417860067074 389.8532823085234 828.486895274452 397.65525116236853 823.8853622875573 404.5007327788068 819.2838293006627 411.3462143952451 814.6579805031936 418.0776641952091 810.0321317057244 424.80911399517305 806.6948196002047 430.18809666618347 803.3575074946851 435.5670793371939 799.0981938955787 443.6157517552463 794.8388802964722 451.66442417329876 790.5687379029924 459.06810135607674 786.2985955095127 466.4717785388547 783.5298272446751 473.6829544288891 780.7610589798373 480.8941303189235 775.627860623466 489.58865735773566 770.4946622670944 498.2831843965478 766.2222323777512 506.7000826271701 761.9498024884081 515.1169808577924 757.9430244409334 525.1847497814551 753.9362463934589 535.2525187051178 749.662419409957 545.7777718855807 745.3885924264553 556.3030250660437 741.1555989335718 565.1440184834241 736.9226054406884 573.9850119008046 731.8636224105601 585.431748193409 726.8046393804317 596.8784844860135 723.4145272552769 603.4991146682089 720.0244151301222 610.1197448504042 716.4200064439318 616.7374845122106 712.8155977577414 623.355224174017 707.5684406430776 632.7904999654161 702.3212835284137 642.2257757568151 696.8911037483435 651.5994911251183 691.4609239682734 660.9732064934216 687.9033462470045 667.402578050264 684.3457685257355 673.8319496071064 680.3597427823883 679.5244599527441 676.373717039041 685.2169702983817 668.2903736284967 691.5647923303878 660.2070302179524 697.9126143623939 651.1883228306614 697.7320082218826 642.1696154433704 697.5514020813712 632.1224730268334 687.6417686877182 622.0753306102965 677.7321352940653 619.675955057329 671.4496152484037 617.2765795043615 665.167095202742 614.3976308249335 658.7600924841133 611.5186821455054 652.3530897654847 608.9690320989573 645.4417863052025 606.4193820524092 638.5304828449204 603.7533369955439 632.7552541664811 601.0872919386786 626.980025488042 596.7785352982653 622.3784415078117 592.4697786578519 617.7768575275815 588.7730093296409 611.0963192294629 585.0762400014299 604.4157809313443 580.411569630584 598.709166668062 575.7468992597381 593.0025524047797 570.7710836233668 587.832481609373 565.7952679869957 582.6624108139663 561.2818703840446 577.2995725662464 556.7684727810935 571.9367343185265 552.3049917047294 567.4742266646483 547.8415106283655 563.0117190107702 539.3734787761205 555.7233801966718 530.9054469238753 548.4350413825733 526.2552337988393 543.8783574144873 521.6050206738032 539.3216734464011 515.8743927739577 533.2881010589055 510.14376487411215 527.2545286714098 502.6787657391522 521.2103051735828 495.21376660419224 515.1660816757558 490.72538528596317 510.6714313511566 486.23700396773404 506.1767810265575 481.09622257065575 502.0614029634331 475.95544117357747 497.94602490030877 470.27551377979626 492.5566531985851 464.5955863860151 487.1672814968614 460.3154055295388 482.496358901476 456.0352246730625 477.82543630609064 450.5958472902922 472.35485614813786 445.15646990752197 466.8842759901851 440.10277027287884 461.0408955128312 435.0490706382357 455.19751503547724 427.6557939680116 447.53938086361734 420.26251729778755 439.8812466917575 414.6966031455361 434.11293865782113 409.13068899328454 428.3446306238848 404.943184611446 422.1044128373893 400.7556802296074 415.86419505089384 394.4951611937786 405.45749277133655 388.23464215794985 395.05079049177925 383.2008359327756 385.3412277346579 378.16702970760133 375.63166497753656 375.07524926687745 368.8436198290211 371.9834688261535 362.0555746805057 369.59105968304334 355.2336446644503 367.1986505399331 348.41171464839493 370.25619101947143 340.8187077294755 373.31373149900975 333.225700810556 373.3220520019531 333.22015380859375 Z" fill="url(#dddraw-gradient)"></path></svg>