<svg xmlns="http://www.w3.org/2000/svg" version="1.1" xmlns:xlink="http://www.w3.org/1999/xlink" viewBox="0 0 1422 800" style="overflow: hidden; display: block;" width="1422" height="800"><defs><linearGradient id="dddraw-gradient" x1="711" y1="-400" x2="711" y2="800" spreadMethod="pad" gradientUnits="userSpaceOnUse"><stop offset="0%" stop-color="hsl(184, 74%, 44%)" stop-opacity="1"></stop><stop offset="100%" stop-color="hsl(332, 87%, 70%)" stop-opacity="1"></stop></linearGradient></defs><g id="two-0" transform="matrix(1 0 0 1 0 0)" opacity="1"></g><path d="M 536.02287274436 150.44560013405393 Q 536.02287274436 150.44560013405393 535.272133411135 144.06627018423157 534.5213940779098 137.6869402344092 537.3935295603133 131.57352148791614 540.2656650427168 125.46010274142306 544.7647026617201 119.38355327700955 549.2637402807234 113.30700381259605 554.2708074945515 106.4634924885507 559.2778747083795 99.61998116450535 566.4131833665715 96.82131931428785 573.5484920247636 94.02265746407035 580.7100218934152 93.29106163005888 587.8715517620666 92.5594657960474 594.3235593712554 92.27424967529399 600.7755669804442 91.98903355454058 607.1822334647993 91.76973736900614 613.5888999491546 91.55044118347169 620.5848756182645 91.31492402600179 627.5808512873743 91.07940686853188 634.4747866915282 90.84094224354538 641.3687220956818 90.60247761855891 647.7775279972149 90.46847415965853 654.1863338987479 90.33447070075815 661.409714428351 89.14204773480392 668.6330949579542 87.94962476884972 675.4742372203038 87.82575916589039 682.3153794826535 87.70189356293108 689.6091383574478 87.58549086207567 696.9028972322421 87.46908816122027 703.6477080595071 87.4418622858581 710.3925188867721 87.41463641049592 717.6833255319312 87.38170291204749 724.9741321770904 87.34876941359906 731.9995019054279 87.25643710346205 739.0248716337654 87.16410479332502 745.7162708407743 87.0810501598458 752.4076700477833 86.99799552636657 759.0542249854066 86.97924669470868 765.7007799230299 86.96049786305078 772.6129595965873 87.0323103809879 779.5251392701447 87.10412289892503 786.2305670087746 87.4228252778669 792.9359947474045 87.7415276568088 802.6918135389155 90.06056097670813 812.4476323304266 92.37959429660746 819.8229256549289 99.06290883096446 827.1982189794311 105.74622336532146 827.5424950577602 112.09455072954708 827.8867711360894 118.44287809377272 828.3991003793992 126.81103763083482 828.9114296227091 135.17919716789692 828.8633778933652 142.22490004283108 828.8153261640211 149.27060291776525 828.8121656958492 149.2744773778482 828.8090052276773 149.27835183793115 828.8058447595054 149.2822262980141 828.8026842913334 149.28610075809706 823.9485543994103 147.8128448020043 819.0944245074871 146.33958884591152 813.5111924696001 141.76099546155808 807.9279604317131 137.18240207720464 800.4319775895588 132.82195393383074 792.9359947474045 128.4615057904568 786.2305670087746 128.7802081693987 779.5251392701447 129.0989105483406 772.6129595965895 129.17072306627793 765.7007799230342 129.24253558421526 759.054224985478 129.2237867525639 752.4076700479216 129.20503792091253 745.7162708457656 129.1219832879121 739.0248716436098 129.03892865491162 731.9995021753039 128.94659637930437 724.9741327069979 128.85426410369712 717.6833314165704 128.82133164348573 710.3925301261428 128.78839918327432 703.6480829913708 128.76120513088827 696.9036358565988 128.73401107850222 689.625448889101 128.6199479554012 682.3472619216031 128.50588483230018 676.0072640051656 128.45236539373644 669.667266088728 128.3988459551727 662.3139130260331 129.36260144556735 654.9605599633381 130.32635693596197 648.1646410300991 130.1923534771102 641.3687220968601 130.0583500182584 634.4747867700969 129.8198854015849 627.5808514433336 129.58142078491142 620.5848799177054 129.34590422216607 613.5889083920773 129.11038765942072 607.1823974040406 128.89110935599837 600.7758864160037 128.67183105257604 593.2194627561523 128.3000135689253 585.6630390963011 127.92819608527455 579.6071064098851 126.12708636503365 573.551173723469 124.32597664479275 565.7890008235519 129.44883435512668 558.0268279236348 134.57169206546064 552.9107354165149 139.9216266326888 547.7946429093948 145.271561199917 541.9174402582987 147.86354205636903 536.0402376072025 150.45552291282107 536.0315551757812 150.4505615234375 Z" fill="url(#dddraw-gradient)"></path><path d="M 518.2003784179688 147.7397345139603 Q 518.2003784179688 147.7397345139603 520.6733421630859 147.59782628696826 523.1463059082031 147.45591805997623 531.8270139837572 146.9706336122211 540.5077220593113 146.48534916446593 549.7234919814459 146.01248376320325 558.9392619035805 145.53961836194054 567.3373196384227 145.16255821646672 575.735377373265 144.78549807099293 585.6448684672077 144.6806085841639 595.5543595611506 144.57571909733488 603.9504319936682 144.8328624835309 612.3465044261857 145.09000586972692 621.4464163774412 145.03233044022448 630.5463283286969 144.97465501072205 639.5047727181226 144.84633838286933 648.4632171075483 144.71802175501662 656.7367428304451 145.1845395390883 665.010268553342 145.65105732316 673.0701382938739 145.86373658181208 681.1300080344058 146.07641584046416 689.5684448545187 146.07119450907305 698.0068816746317 146.06597317768197 706.3947270548015 146.01440983098695 714.7825724349713 145.96284648429193 723.2627327558378 145.90215370266543 731.7428930767044 145.84146092103893 739.6210040684314 145.7747690680843 747.4991150601585 145.7080772151297 755.3987136944045 145.6511215303919 763.2983123286504 145.5941658456541 771.7819882976858 145.5554041294486 780.265664266721 145.5166424132431 788.9378723024886 145.45662272815764 797.6100803382562 145.39660304307222 805.671477855276 145.33781282382859 813.7328753722956 145.27902260458498 821.6117779040815 145.2272853831806 829.4906804358675 145.17554816177622 834.2902745156686 145.158443217024 839.0898685954696 145.14133827227175 842.4285091295717 145.68870068244792 845.7671496636739 146.2360630926241 848.7562329040965 147.8208367691622 851.745316144519 149.4056104457003 854.0718842869486 151.86186916632712 856.3984524293782 154.31812788695396 857.8189131751479 157.38870071523058 859.2393739209177 160.4592735435072 859.6050046549803 163.82267069376053 859.9706353890431 167.18606784401388 859.2431544770251 170.4901407467618 858.5156735650071 173.79421364950971 856.7712484504332 176.69302499964397 855.0268233358591 179.5918363497782 852.4480957887085 181.78187983372783 849.869368241558 183.97192331767744 846.7263317167354 185.22390080455762 843.5832951919128 186.47587829143777 840.2050264432482 186.65870740788213 836.8267576945838 186.8415365243265 833.5669623518387 185.93607501358116 830.3071670090936 185.03061350283585 827.507146505156 183.13166342409448 824.7071260012183 181.2327133453531 822.6600432219838 178.53909527313402 820.6129604427492 175.84547720091498 819.5331454955813 172.6392136584257 818.4533305484133 169.4329501159364 818.4538403433237 166.04973774244684 818.4543501382341 162.6665253689573 819.5351312995612 159.46058739305323 820.6159124608882 156.25464941714918 822.6638069157426 153.56164839119316 824.711701370597 150.86864736523714 827.5122940289638 148.97054120753 830.3128866873305 147.07243504982284 833.572954758594 146.16795597612787 836.8330228298574 145.2634769024329 840.2112363263818 145.44732411052524 843.5894498229063 145.63117131861762 846.732108899844 146.88409595727907 849.8747679767816 148.13702059594053 852.4528353991957 150.32784112476324 855.0309028216096 152.51866165358595 856.7744542498295 155.41799858488176 858.5180056780495 158.31733551617756 859.2444908172878 161.62162750788917 859.9709759565261 164.92591949960075 859.6043316209311 168.28920630794755 859.2376872853362 171.65249311629435 857.8163012336295 174.72263772462094 856.3949151819227 177.79278233294752 854.0676069089272 180.2483397903227 851.7402986359319 182.70389724769782 848.7507379321803 184.28777004013014 845.7611772284286 185.87164283256246 842.4223718887708 186.41799906058242 839.083566549113 186.9643552886024 839.0867032754127 186.9643557612559 839.0898400017124 186.96435623390937 834.2902280572758 186.94724214962508 829.4906161128392 186.93012806534082 821.611640022473 186.87834782419148 813.7326639321067 186.82656758304213 805.671034890451 186.7676333881679 797.6094058487952 186.70869919329368 788.9365495486536 186.64819766011226 780.2636932485121 186.5876961269308 771.7784788516371 186.5476863105703 763.2932644547623 186.5076764942098 755.3880739984063 186.4472058144423 747.4828835420504 186.3867351346748 739.5904692214226 186.31014408412028 731.6980549007949 186.23355303356576 723.1833760776426 186.1449813752142 714.6686972544902 186.05640971686265 706.1683947238765 185.92633174717858 697.6680921932629 185.7962537774945 688.8184967807392 185.5053341201172 679.9689013682155 185.21441446273985 671.2039690890201 184.6870677092509 662.4390368098248 184.15972095576194 653.7666474054893 183.4389830694484 645.0942580011538 182.71824518313485 635.9592528535211 182.44237552986374 626.8242477058884 182.16650587659265 618.937384200896 181.80177728225976 611.0505206959035 181.43704868792688 602.4376996569551 180.59789710676085 593.8248786180068 179.75874552559486 584.7801279956359 179.08168598316036 575.735377373265 178.40462644072582 567.3373196384227 178.02756629525203 558.9392619035805 177.6505061497782 549.7234919814459 177.1776407485155 540.5077220593113 176.70477534725282 531.8270139837572 176.21949089949766 523.1463059082031 175.73420645174252 520.6733421630859 175.5922982247505 518.2003784179688 175.45038999775846 516.542428195561 175.24907192292122 514.8844779731533 175.04775384808397 513.3228878955703 174.4555002395407 511.76129781798727 173.8632466309974 510.3868275739092 172.9144792963035 509.01235732983116 171.96571196160963 507.90489119442304 170.7155733028352 506.7974250590149 169.46543464406076 506.02132901610076 167.98658277879127 505.2452329731866 166.50773091352175 504.8456137612452 164.88611678165023 504.44599454930386 163.26450264977868 504.44607805570934 161.5943745408407 504.44616156211487 159.9242464319027 504.84594293347106 158.30267227006036 505.24572430482726 156.681098108218 506.0219682290473 155.20232385994694 506.79821215326723 153.72354961167585 507.9058032970037 152.47352170576545 509.0133944407401 151.22349379985508 510.3879595546791 150.2748639169292 511.76252466861814 149.32623403400333 513.3241739637539 148.73413658742882 514.8858232588897 148.1420391408543 516.5437936048152 147.9408868620456 518.2017639507407 147.73973458323692 518.2010711843548 147.73973454859862 Z" fill="url(#dddraw-gradient)"></path><path d="M 513.8794118577684 154.68320999342387 Q 513.8794118577684 154.68320999342387 516.1540783600067 154.18913568718392 518.4287448622448 153.69506138094397 526.3089576532868 152.2449145625396 534.1891704443289 150.79476774413524 543.2986016832917 149.63819491066226 552.4080329222545 148.4816220771893 561.2374460545991 147.78513385534072 570.0668591869437 147.08864563349215 578.1934818934576 146.6536516795185 586.3201045999716 146.21865772554486 594.3740793647542 145.92420806689546 602.4280541295368 145.62975840824603 610.5195005425326 145.38259060001533 618.6109469555283 145.13542279178463 618.7766748092815 145.12691465868193 618.9424026630347 145.11840652557925 621.1817736185831 145.3869969591467 623.4211445741314 145.65558739271418 625.531159453031 146.452305855146 627.6411743319306 147.2490243175778 629.4991989702812 148.5275654944038 631.3572236086319 149.80610667122977 632.8552695271537 151.49216168918076 634.3533154456754 153.17821670713178 635.4043161451984 155.17379196934556 636.4553168447216 157.16936723155933 636.9981881152084 159.35847981003434 637.5410593856955 161.54759238850932 637.544249523399 163.8030109573295 637.5474396611025 166.0584295261497 637.0107632550694 168.2490690521249 636.4740868490362 170.4397085781001 635.4287355572008 172.43824898905387 634.3833842653652 174.43678940000763 632.8901139539244 176.12707543335432 631.3968436424834 177.817361466701 629.5424432520992 179.10115361876473 627.6880428617151 180.38494577082847 625.5802902302053 181.1876299814126 623.4725375986955 181.99031419199673 621.2339354080358 182.26523841706816 618.9953332173761 182.5401626421396 610.6008582065742 182.80731415173275 602.2063831957723 183.07446566132592 593.2878298847361 184.05712400746705 584.3692765736997 185.0397823536082 576.4921068137103 185.38414685455336 568.6149370537208 185.72851135549857 559.798192960262 185.9270632404469 550.9814488668032 186.12561512539523 542.8701083634327 186.25141118513596 534.7587678600621 186.37720724487667 526.0773120844858 186.09757201934397 517.3958563089096 185.81793679381127 511.33994204203395 167.8637408594328 505.2840277751582 149.90954492505432 513.3563569024161 146.8157924708128 521.428686029674 143.72204001657127 529.9771750104146 143.41383902521403 538.5256639911553 143.10563803385682 546.6016846913544 143.33561063987264 554.6777053915534 143.5655832458885 562.6190603587072 144.60117657511358 570.5604153258608 145.6367699043387 578.3583678723007 146.86282406198805 586.1563204187406 148.0888782196374 594.1651612918165 148.55053988886775 602.1740021648923 149.0122015580981 611.1077642151432 149.1452147709693 620.0415262653942 149.2782279838405 628.3957739887054 149.3046121383856 636.7500217120166 149.33099629293073 644.6614757449319 149.3037127980539 652.5729297778471 149.27642930317708 660.534842477572 149.26877188349107 668.496755177297 149.26111446380503 676.7333099287175 149.28399529287856 684.9698646801379 149.3068761219521 693.4503689421508 149.3015490843335 701.9308732041637 149.29622204671486 709.9349884130045 149.28227476227408 717.9391036218453 149.26832747783328 726.9194341148761 149.25205633846534 735.899764607907 149.2357851990974 743.8716801325995 149.2554857392348 751.8435956572921 149.27518627937226 760.1969198429169 149.29953998017174 768.5502440285417 149.32389368097125 777.4965288740802 149.3607859349603 786.4428137196189 149.39767818894936 794.4202305012307 149.40228524683914 802.3976472828424 149.40689230472893 811.1248766786795 149.39774965363546 819.8521060745165 149.38860700254202 824.5066475495119 149.38015196225822 829.1611890245073 149.37169692197443 832.5361427633027 149.92501044245302 835.911096502098 150.47832396293163 838.9326916891893 152.08033242617392 841.9542868762805 153.68234088941625 844.3061616979555 156.1653135864317 846.6580365196306 158.6482862834471 848.0939490612254 161.752255317417 849.5298616028203 164.85622435138686 849.8994714421858 168.2562033450863 850.2690812815513 171.65618233878573 849.5336901709384 174.99619259406708 848.7982990603255 178.33620284934844 847.0349026431397 181.26654441080672 845.271506225954 184.19688597226497 842.6647325725662 186.4107513048804 840.0579589191784 188.62461663749582 836.8807379192197 189.8902134565399 833.7035169192609 191.15581027558397 830.2885044501318 191.34063026001763 826.8734919810028 191.52545024445132 823.5782407496969 190.61014269311667 820.282989518391 189.69483514178202 817.4525131986879 187.77523299692152 814.6220368789848 185.855630852061 812.5526870887305 183.13271696496727 810.4833372984763 180.40980307787353 809.3917755069658 177.16866725130478 808.3002137154554 173.927531424736 808.3007267304042 170.5075214353107 808.301239745353 167.08751144588538 809.3937738539605 163.84670324229137 810.4863079625679 160.60589503869733 812.556474555262 157.88360209534113 814.6266411479559 155.16130915198494 817.4576932360103 153.24255625865152 820.2887453240648 151.3238033653181 823.5842710065353 150.40948445644102 826.879796689006 149.49516554756397 830.2947535570036 149.68101005425945 833.7097104250013 149.86685456095492 836.8865515929856 151.13340451431372 840.0633927609699 152.39995446767253 842.6695021200483 154.6146017532413 845.2756114791267 156.82924903881005 847.0381286914576 159.7601195011796 848.8006459037886 162.69098996354916 849.5350349519816 166.03122069163476 850.2694240001747 169.37145141972036 849.8987941570242 172.77131937455619 849.5281643138736 176.17118732939198 848.0913206217941 179.27472543862868 846.6544769297146 182.37826354786537 844.3018573025569 184.86053055221143 841.9492376753991 187.34279755655749 838.9271620091577 188.943899445403 835.9050863429163 190.5450013342485 832.5299667575972 191.09730231718146 829.1548471722781 191.64960330011445 829.1580180152803 191.64960377575338 829.1611888582823 191.6496042513923 824.5066473059464 191.64114916330186 819.8521057536104 191.63269407521142 811.1248760503496 191.62355119909228 802.3976463470888 191.6144083229731 794.4202287464506 191.6190147979932 786.4428111458124 191.6236212730133 777.4965239652336 191.66051188548028 768.5502367846549 191.69740249794728 760.1969067031034 191.72175157576692 751.8435766215521 191.74610065358658 743.8716344531116 191.76578817413485 735.8996922846711 191.7854756946831 726.919255904988 191.76914445389423 717.9388195253048 191.75281321310536 709.9343871338547 191.7386775110666 701.9299547424047 191.7245418090279 693.4485252573112 191.7185841878831 684.9670957722177 191.71262656673827 676.7282512779384 191.73387403583118 668.489406783659 191.7551215049241 659.5212054262349 191.73598580235574 650.5530040688108 191.71685009978742 642.3668588549729 191.66533536799304 634.1807136411351 191.61382063619865 625.7618065415891 191.55119860916673 617.342899442043 191.4885765821348 609.0098958777255 191.300142727397 600.676892313408 191.1117088726592 592.7098866010452 190.65382050001875 584.7428808886825 190.19593212737834 576.085181865499 188.86441244500767 567.4274828423154 187.532892762637 558.3298333757693 186.14711570421895 549.2321839092233 184.7613386458009 541.1979545788611 182.36304167530665 533.163725248499 179.9647447048124 533.9256506578774 162.8255166136227 534.687576067256 145.68628852243302 542.7216469210683 145.76254840901902 550.7557177748806 145.838808295605 559.3589832956793 145.8715758001252 567.9622488164779 145.90434330464544 576.9636508614255 145.74335299181777 585.9650529063733 145.5823626789901 594.086954109857 145.07857910300532 602.2088553133406 144.5747955270205 610.574693444421 144.84660244311812 618.9405315755014 145.11840935921572 621.1799293788962 145.38677585434505 623.419327182291 145.6551423494744 625.5294217224866 146.45164980643509 627.6395162626823 147.24815726339577 629.4976687458602 148.5265126313655 631.3558212290383 149.80486799933527 632.8540357455713 151.4907732042644 634.3522502621043 153.17667840919353 635.4034505138983 155.17214856135965 636.4546507656922 157.16761871352577 636.9977409447223 159.35667699392823 637.5408311237524 161.5457352743307 637.5442468032965 163.80115351286003 637.5476624828406 166.05657175138936 637.011205143443 168.24726493405188 636.4747478040455 170.43795811671438 635.4295963714774 172.43660305280446 634.3844449389094 174.43524798889453 632.891343663538 176.12568334082067 631.3982423881665 177.81611869274684 629.5439703862694 179.10009627843033 627.6896983843722 180.38407386411384 625.582026031822 181.18696884594738 623.4743536792719 181.98986382778088 621.2357789922277 182.26501191169638 618.9972043051835 182.54015999561187 612.1837438894962 182.34070966316906 605.370283473809 182.14125933072626 597.0563453239022 181.88673513522266 588.7424071739953 181.63221093971907 580.8226603713233 181.33638197324296 572.9029135686515 181.04055300676683 564.6581994128089 180.79311442384324 556.4134852569664 180.54567584091967 548.3869072231801 180.53835067968242 540.3603291893936 180.5310255184452 531.5299287907717 180.99317522976133 522.6995283921498 181.4553249410775 520.3815548492219 181.66781101386587 518.063581306294 181.88029708665425 516.4059602673369 181.93305222461333 514.7483392283799 181.98580736257244 513.1262631708548 181.64032237450763 511.50418711332986 181.29483738644282 510.01193117391307 180.57119187609294 508.5196752344963 179.84754636574306 507.24396939850004 178.78779864416998 505.9682635625038 177.72805092259694 504.983251913055 176.39379357717056 503.9982402636062 175.05953623174418 503.3611717240513 173.52831636207046 502.7241031844964 171.99709649239674 502.472004208287 170.3579086692452 502.2199052320775 168.71872084609365 502.36742782355554 167.06683474276275 502.51495041503364 165.41494863943186 503.05352055425124 163.84637195386074 503.5920906934688 162.2777952682896 504.4904066586299 160.88369375114289 505.3887226237911 159.48959223399618 506.5945742487935 158.35099113095205 507.8004258737958 157.21239002790793 509.24372900553755 156.39546488857223 510.6870321372793 155.5785397492365 512.2839019299303 155.1307703010905 513.8807717225812 154.6830008529445 513.8800917901749 154.6831054231842 Z" fill="url(#dddraw-gradient)"></path><path d="M 523.1345737398652 210.63079833984375 Q 523.1345737398652 210.63079833984375 523.2766327547392 213.10375966644287 523.4186917696132 215.576720993042 523.9052708726088 224.36268553541777 524.3918499756044 233.14865007779358 524.9913792468099 241.15791074912278 525.5909085180152 249.16717142045198 526.6463213321206 258.14829980589246 527.7017341462258 267.129428191333 529.6809379130864 275.8293830556505 531.660141679947 284.5293379199681 532.7526756228605 292.3347154989616 533.845209565774 300.14009307795516 535.5097130739446 308.93035776494787 537.174216582115 317.7206224519405 539.720892992581 327.63531997814715 542.2675694030468 337.5500175043538 544.3794607384814 345.39982748268324 546.4913520739161 353.24963746101264 548.8000878572497 360.9437894090314 551.1088236405832 368.6379413570501 553.8677333504343 377.51963394863196 556.6266430602853 386.40132654021386 558.5254235053181 394.2052008884319 560.424203950351 402.0090752366499 562.3791816480054 410.1701454169921 564.3341593456598 418.33121559733434 566.8420175400005 427.3999952727121 569.3498757343411 436.4687749480899 571.8761693067753 444.87583017588526 574.4024628792095 453.2828854036806 576.7528373255634 462.95435401604254 579.1032117719175 472.6258226284045 582.2266854684885 481.65872164707696 585.3501591650595 490.69162066574944 589.7033158627834 497.482033764456 594.0564725605072 504.2724468631626 602.9816071927406 506.7273684410542 611.906741824974 509.1822900189457 620.2687322132601 509.7498283800402 628.6307226015462 510.3173667411347 638.8776820419487 510.7226318175276 649.1246414823512 511.1278968939204 658.1733290884321 510.68099083817833 667.222016694513 510.2340847824363 676.4258867858078 508.5528808558316 685.6297568771027 506.87167692922685 694.9476098562051 504.4852624241486 704.2654628353074 502.0988479190703 712.867321457278 500.3167374686318 721.4691800792484 498.53462701819336 729.5624602274459 497.7575714022382 737.6557403756434 496.98051578628315 746.8651579735621 496.67646258975765 756.0745755714808 496.3724093932322 764.5465718126852 495.91378445227286 773.0185680538898 495.4551595113135 780.4393752424863 490.2924195796674 787.8601824310829 485.1296796480213 791.9431688852719 475.8625945819305 796.026155339461 466.59550951583975 799.2814900978817 458.166176187994 802.5368248563025 449.7368428601482 804.6556366999878 441.7053619704364 806.774448543673 433.6738810807246 809.3907226347874 424.9423884394537 812.0069967259018 416.21089579818283 814.2049517016566 407.2640422211965 816.4029066774114 398.3171886442102 818.2423154995953 389.001250861313 820.0817243217792 379.6853130784158 821.0727212917548 370.87233958471626 822.0637182617304 362.0593660910167 823.1606100328618 353.15080120171143 824.2575018039931 344.24223631240613 825.9608528604413 334.8408480855598 827.6642039168895 325.43945985871346 828.9568828838146 316.26070780570524 830.2495618507398 307.08195575269696 831.5685754640108 299.28762565299473 832.8875890772817 291.49329555329246 834.4285515195753 283.0989834163603 835.9695139618689 274.70467127942806 837.8127915351844 265.4411502406175 839.6560691084999 256.177629201807 841.5924699823843 247.61614016235166 843.5288708562686 239.05465112289633 845.683439295146 229.96071612020899 847.8380077340232 220.8667811175216 849.0860561034324 217.86594367379303 850.3341044728415 214.8651062300644 852.4750187509421 212.41987901160525 854.6159330290427 209.97465179314605 857.4255589257709 208.34105073520624 860.2351848224993 206.70744967726642 863.4193537647986 206.0565132418411 866.6035227070981 205.40557680641575 869.828851366171 205.80545821012447 873.0541800252438 206.2053396138332 875.982975639081 207.6141711681492 878.9117712529182 209.0230027224652 881.2373881476241 211.29327939175622 883.5630050423299 213.56355606104722 885.0419505151256 216.45757927874365 886.5208959879211 219.35160249644005 886.9983240574011 222.56636726770108 887.475752126881 225.78113203896214 886.9016759481419 228.98005164362132 886.3275997694029 232.17897124828053 884.7621252699003 235.02711795929724 883.1966507703977 237.87526467031398 880.8036835434746 240.07443677520712 878.4107163165513 242.27360888010023 875.4408006625484 243.59355247896235 872.4708850085456 244.91349607782448 869.2349718804187 245.2160127274235 865.9990587522917 245.5185293770225 862.8359491087538 244.77194550428874 859.6728394652159 244.02536163155497 856.9137117209253 242.30784476504266 854.1545839766347 240.59032789853035 852.0883195347576 238.08170250754375 850.0220550928805 235.57307711655716 848.8649923859223 232.53599694174537 847.707929678964 229.49891676693358 847.581213477778 226.25136490431066 847.454497276592 223.00381304168778 848.3713948008922 219.88580902854085 849.2882923251925 216.7678050153939 851.1528041621474 214.1058046949725 853.0173159991023 211.44380437455112 855.6342272671993 209.51651988310323 858.2511385352963 207.58923539165536 861.3464579339682 206.5984539241893 864.44177733264 205.6076724567232 867.6914241037607 205.65712909442357 870.9410708748816 205.7065857321239 874.0048061436916 206.79110235196814 877.0685414125015 207.87561897181237 879.6255912876087 209.88164639741822 882.1826411627159 211.88767382302407 883.9652818472009 214.6051804533908 885.747922531686 217.32268708375756 886.5695110753118 220.4671492573337 887.3910996189377 223.61161143090985 887.1656154843085 226.85380312806456 886.9401313496793 230.09599482521926 886.9408235407125 230.09306216592614 886.9415157317458 230.090129506633 885.6039506950053 235.01373263115988 884.2663856582649 239.93733575568675 882.1705792889724 248.47581278742814 880.0747729196798 257.0142898191695 878.2137130622879 264.69500432032146 876.3526532048959 272.37571882147347 874.7275627962573 280.84867654293606 873.1024723876187 289.32163426439865 871.2295301960972 298.05482687059214 869.3565880045758 306.78801947678556 868.1038685198625 316.0080738300759 866.8511490351494 325.22812818336627 865.8207244197567 333.32239977050256 864.7902998043639 341.4166713576388 863.4505645440402 349.1780370501466 862.1108292837163 356.93940274265435 861.1046955035741 366.293017949811 860.098561723432 375.6466331569676 858.5139779735691 386.07961516375957 856.9293942237061 396.51259717055154 855.3205552792068 404.55236923915004 853.7117163347075 412.59214130774853 851.5448123358858 421.69843743500184 849.377908337064 430.80473356225514 846.9915174153715 439.0787535732062 844.605126493679 447.3527735841573 842.4413386585979 455.6844265075879 840.277550823517 464.01607943101845 837.175034606612 472.515676546046 834.072518389707 481.01527366107354 831.2143978663778 488.6739292815308 828.3562773430486 496.332584901988 823.5368075596909 504.06988445742195 818.7173377763334 511.8071840128558 812.4945975730427 517.3984139479542 806.271857369752 522.9896438830525 799.3263651910909 527.106767981121 792.3808730124297 531.2238920791896 784.1662508763806 533.4806936945408 775.9516287403314 535.7374953098922 766.4303007324854 536.0485518632794 756.9089727246393 536.3596084166666 748.4143576693638 536.5709963670266 739.9197426140882 536.7823843173867 731.1694213200944 537.5538568428487 722.4191000261008 538.3253293683109 714.5823651623417 540.2155518199415 706.7456302985827 542.105774271572 697.4493506547863 544.1990007889174 688.15307101099 546.2922273062626 679.6618822565432 547.892993444277 671.1706935020965 549.4937595822913 663.0349095301236 550.0739588091428 654.8991255581508 550.6541580359944 646.2605710336284 550.793748451304 637.6220165091058 550.9333388666136 629.7302286988056 550.782422658205 621.8384408885055 550.6315064497962 612.7531686889195 550.024408785028 603.6678964893334 549.4173111202597 593.5282845847987 546.9337459874541 583.388672680264 544.4501808546487 576.3879520854462 540.6664041630237 569.3872314906282 536.8826274713987 562.6023744235688 529.9742340070868 555.8175173565095 523.0658405427748 552.1035171151636 514.9238736256509 548.3895168738179 506.7819067085271 545.8807570745541 499.0336341019213 543.3719972752904 491.2853614953154 541.2014164456889 483.1655247571506 539.0308356160874 475.04568801898586 536.7865560478026 465.6541710328287 534.5422764795178 456.26265404667146 532.4592791394846 448.56318946652516 530.3762817994515 440.8637248863789 528.2760901591947 432.2223159059182 526.175898518938 423.5809069254575 524.415577475351 414.93590000399695 522.6552564317642 406.29089308253646 520.4922310649163 397.72214676476085 518.3292056980684 389.1534004469852 515.2920774417903 378.9878871595073 512.2549491855123 368.8223738720294 510.11786138093055 361.02690150549904 507.9807735763489 353.23142913896874 505.7650400440165 345.66116924430446 503.54930651168405 338.09090934964024 502.0416849296097 329.46300210146336 500.53406334753527 320.8350948532865 499.30435906473656 312.2785923502775 498.07465478193785 303.72208984726853 497.26893524307184 294.4360186619342 496.4632157042059 285.14994747659995 495.22844684546413 277.0395630110128 493.9936779867224 268.92917854542554 493.8394573814483 260.73606840029146 493.68523677617424 252.5429582551574 493.9314834393474 242.8458041664755 494.1777301025206 233.14865007779358 494.6643092055162 224.36268553541777 495.15088830851175 215.576720993042 495.29294732338576 213.10375966644287 495.43500633825977 210.63079833984375 495.63624385811477 208.97351152607848 495.83748137796977 207.31622471231324 496.42949800342564 205.75525948603132 497.0215146288815 204.19429425974937 497.969902325851 202.8203739932439 498.91829002282054 201.44645372673844 500.167928453796 200.3394307304521 501.4175668847715 199.23240773416578 502.8958270054306 198.456622236656 504.3740871260897 197.6808367391462 505.99505238876395 197.28137742997836 507.61601765143826 196.8819181208105 509.28547747890036 196.88200159380193 510.9549373063625 196.8820850667934 512.5758626150011 197.28170647048995 514.1967879236397 197.68132787418648 515.6749704583578 198.45726119382914 517.1531529930761 199.23319451347183 518.402680715504 200.34034246806596 519.6522084379317 201.44749042266005 520.6004587381328 202.82150552106546 521.548709038334 204.19552061947087 522.1405695643075 205.75654503961042 522.7324300902809 207.31756945974996 522.9335018804486 208.97487638898073 523.1345736706163 210.6321833182115 523.1345737052408 210.63149082902763 Z" fill="url(#dddraw-gradient)"></path><path d="M 587.8636588865319 214.15918221781496 Q 587.8636588865319 214.15918221781496 588.1796693474545 216.79919316147098 588.4956798083771 219.439204105127 590.0804544431081 227.5631730881674 591.6652290778392 235.6871420712078 593.9879133276584 243.57727189854882 596.3105975774777 251.46740172588983 599.4764212502439 260.68305803083274 602.6422449230103 269.8987143357756 605.450178216066 277.3686354314047 608.2581115091216 284.8385565270338 611.230620684017 293.0575150985215 614.2031298589125 301.2764736700092 617.0616659202915 310.05458071144346 619.9202019816704 318.8326877528778 622.6708336085139 327.7360675249271 625.4214652353576 336.63944729697636 628.2829766079651 345.67618361931375 631.1444879805725 354.7129199416511 634.3127033775384 364.10999910732215 637.4809187745042 373.5070782729932 640.3901359546207 382.8132928700733 643.2993531347374 392.1195074671534 645.877732312607 400.6606865445922 648.4561114904766 409.20186562203094 650.9021886713209 417.98827949568687 653.3482658521652 426.7746933693428 655.4930990012131 434.59660890658483 657.6379321502608 442.4185244438269 660.8137004588808 450.83826074832973 663.9894687675009 459.25799705283254 664.4827475516865 459.865079238634 664.9760263358721 460.47216142443546 665.9368084648421 463.35922318786675 666.8975905938121 466.2462849512981 666.8862041101506 469.2889972730934 666.8748176264891 472.33170959488876 665.8924546980411 475.21149969175804 664.9100917695932 478.09128978862736 663.0596060542862 480.5066428772377 661.209120338979 482.921995965848 658.684258179686 484.62002394023057 656.159396020393 486.3180519146131 653.2245111516911 487.1209707976141 650.2896262829892 487.92388968061516 647.2520019253657 487.7476336532345 644.2143775677422 487.57137762585387 641.3920537932954 486.43440074068536 638.5697300188485 485.29742385551685 636.2582048717841 483.31876789257035 633.9466797247196 481.34011192962384 632.3879704981184 478.7269426905343 630.8292612715173 476.1137734514448 630.186565232864 473.1396904453546 629.5438691942106 470.16560743926436 629.8844767884073 467.1419979419928 630.225084382604 464.11838844472123 631.5133339046267 461.3618251687881 632.8015834266494 458.60526189285486 634.9025948114775 456.40435774091225 637.0036061963054 454.20345358896964 639.6974029973342 452.7886438067083 642.391199798363 451.373834024447 645.3957407794315 450.8932495695432 648.4002817605001 450.4126651146394 651.4009906877686 450.9166233063836 654.4016996150372 451.4205814981277 657.0844014717105 452.8563177808121 659.7671033283839 454.29205406349655 661.8509185219038 456.5092464693266 663.9347337154238 458.72643887515676 665.201486244955 461.4929467739601 666.4682387744863 464.25945467276347 666.7852993157967 467.2856239572483 667.1023598571071 470.3117932417331 666.4365320878255 473.2807831889826 665.7707043185441 476.24977313623214 664.1917005818759 478.8507297150322 662.6126968452077 481.4516862938322 660.2858392491985 483.4122886637965 657.9589816531894 485.3728910337609 655.1278928023721 486.4878636092054 652.2968039515548 487.60283618465 649.257899595945 487.7554410426016 646.2189952403351 487.9080459005532 643.2904494681577 487.0823052721005 640.3619036959803 486.25656464364783 637.8503360226435 484.5389337905642 635.3387683493067 482.8213029374806 633.5071405731983 480.3916182634944 631.6755127970898 477.96193358950825 631.676824530012 477.9644311280424 631.6781362629342 477.9669286665765 627.8290646466081 467.3758779198887 623.979993030282 456.7848271732008 621.5458985553457 447.21811503201224 619.1118040804095 437.65140289082365 616.7396071215165 428.04286679329465 614.3674101626236 418.43433069576565 612.0974435703267 410.41756862634446 609.8274769780298 402.40080655692327 607.0306274811678 393.2361605376271 604.2337779843057 384.0715145183309 600.849373157725 373.9710520394021 597.4649683311444 363.87058956047326 594.8774752294962 355.30287286469024 592.2899821278481 346.73515616890717 589.8381272972367 338.1878416384343 587.3862724666254 329.6405271079614 584.5372800635848 320.30725442469827 581.6882876605441 310.9739817414352 578.5426135424827 301.0478958350298 575.3969394244215 291.12180992862443 572.8204451533584 283.0896516132309 570.2439508822954 275.05749329783737 568.0909542685635 266.7318652675415 565.9379576548315 258.40623723724565 564.0749866425488 249.73128563559277 562.2120156302661 241.0563340339399 561.1342458833566 231.1963603364157 560.056476136447 221.33638663889153 560.0191991523013 218.67719473983516 559.9819221681556 216.0180028407788 560.0732684553441 214.33631235136124 560.1646147425325 212.6546218619437 560.6557739412401 211.04366261729925 561.1469331399478 209.4327033726548 562.0093590544686 207.98610439977278 562.8717849689896 206.53950542689077 564.055353364651 205.34134312604323 565.2389217603122 204.14318082519569 566.6748435863483 203.26309244560332 568.1107654123845 202.38300406601095 569.7155848247997 201.87214038564645 571.320404237215 201.3612767052819 573.0008490563578 201.24932914525084 574.6812938755005 201.13738158521977 576.3396965695267 201.43085654297101 577.998099263553 201.72433150072226 579.5380733899661 202.40617219792242 581.0780475163793 203.08801289512257 582.4100897065971 204.11859071841428 583.7421318968147 205.14916854170596 584.7888237961556 206.46858625957793 585.8355156954966 207.78800397744993 586.5360235215926 209.31957697014695 587.2365313476885 210.85114996284395 587.5501415527735 212.50586313606976 587.8637517578585 214.1605763092956 587.8637053221952 214.1598792635553 Z" fill="url(#dddraw-gradient)"></path><path d="M 698.8631204749855 218.6873777809596 Q 698.8631204749855 218.6873777809596 698.2919893891551 221.3717270450685 697.7208583033246 224.05607630917737 696.7261843476404 232.2543187703207 695.7315103919562 240.45256123146407 695.0767119419982 250.16933289667838 694.42191349204 259.8861045618927 694.2151977590318 269.3757202787055 694.0084820260236 278.8653359955183 694.42191494504 289.1312973028022 694.8353478640564 299.39725861008606 695.5610112331644 308.5460523944475 696.2866746022726 317.6948461788089 696.7084076210381 327.4890617827138 697.1301406398037 337.2832773866187 697.8308687161484 345.9894391700485 698.531596792493 354.69560095347833 699.888223831595 362.76952513955104 701.2448508706971 370.84344932562374 703.4164784520619 378.6668728521616 705.5881060334267 386.49029637869944 708.2148111861676 394.23395102717495 710.8415163389085 401.9776056756504 713.1025430299401 409.71968398877164 715.3635697209716 417.46176230189286 717.331131753575 425.46466416125946 719.2986937861785 433.46756602062607 720.6795234239252 438.6679915511844 722.0603530616718 443.86841708174273 722.6192577819945 446.90674077735423 723.1781625023173 449.94506447296567 722.7376372961327 453.00279613359737 722.2971120899481 456.060527794229 720.9032800626309 458.8175221078499 719.5094480353137 461.57451642147083 717.30824376806 463.7421153556691 715.1070395008064 465.9097142898674 712.3289296614591 467.2609696640419 709.550819822112 468.6122250382165 706.4866732442007 469.0056600579944 703.4225266662894 469.3990950777723 700.3931603053775 468.7935169927261 697.3637939444654 468.1879389076799 694.6863832582153 466.646751903171 692.0089725719653 465.1055648986621 689.9638431659953 462.79013166089646 687.9187137600252 460.47469842313086 686.719991223002 457.62744542331757 685.5212686859788 454.7801924235042 685.2944595839608 451.6992278023255 685.0676504819428 448.61826318114674 685.836501787783 445.6261647477357 686.6053530936233 442.6340663143246 688.2893658726433 440.0441075644966 689.9733786516633 437.4541488146686 692.3962363213634 435.5374991132134 694.8190939910636 433.62084941175823 697.727122713854 432.5781824883645 700.6351514366445 431.53551556497086 703.7238798376039 431.4759989217554 706.8126082385634 431.4164822785399 709.7586456387663 432.3463473237581 712.7046830389693 433.2762123689763 715.1995785449361 435.09810198693333 717.694474050903 436.9199916048904 719.4770114445705 439.44315347165406 721.2595488382381 441.9663153384177 722.1430959839452 444.9265737404877 723.0266431296523 447.8868321425577 722.9186924080095 450.97424724380505 722.8107416863669 454.06166234505235 721.7225955664267 456.95298096937796 720.6344494464864 459.84429959370357 718.680037114249 462.23679991790664 716.7256247820116 464.62930024210965 714.1095737245771 466.2724868506873 711.4935226671425 467.9156734592649 708.4897341207947 468.63750428053993 705.4859455744468 469.35933510181496 702.4089169929114 469.08423425825504 699.331888411376 468.8091334146951 696.5037854993964 467.56590403724056 693.6756825874169 466.322674659786 691.3926084664241 464.24148319243693 689.1095343454314 462.1602917250879 687.6105274785664 459.45903946385704 686.1115206117014 456.7577872026262 686.1124873144677 456.7604833650802 686.1134540172341 456.7631795275341 685.0112018841417 452.83644288412984 683.9089497510494 448.90970624072554 682.4171147759664 440.69554305398134 680.9252798008836 432.48137986723714 679.1447554540255 424.7983674502309 677.3642311071674 417.11535503322466 674.8817775845953 408.8852278422512 672.3993240620232 400.6551006512778 670.2388699905439 391.69255810809636 668.0784159190647 382.73001556491494 666.6030007029817 374.17955188517203 665.1275854868987 365.6290882054291 663.9512073918262 355.2778811934889 662.7748292967536 344.92667418154866 662.5262502345078 335.1201748341216 662.2776711722619 325.31367548669454 661.9219799260184 316.82514393471797 661.566288679775 308.33661238274146 661.0592555748937 298.3746274424809 660.5522224700123 288.4126425022203 661.0342942896089 280.3811742879666 661.5163661092054 272.34970607371287 662.5575794955757 262.2200963130227 663.598792881946 252.0904865523325 664.8563356155886 244.08758195504856 666.1138783492312 236.08467735776463 668.1510650461466 226.4020958963029 670.1882517430622 216.71951443484116 671.0302414152884 214.10466085623767 671.8722310875145 211.48980727763416 672.4989563382603 209.92721161651662 673.1256815890061 208.36461595539907 674.1081594785724 206.99741921148131 675.0906373681386 205.63022246756358 676.3717662354222 204.53788617983963 677.6528951027058 203.44554989211568 679.1582156777465 202.69156069695123 680.6635362527873 201.93757150178675 682.3055592330367 201.56575128663076 683.9475822132861 201.1939310714748 685.6308731459819 201.22589004470206 687.3141640786778 201.25784901792932 688.9408900157227 201.69172972251425 690.5676159527676 202.12561042709922 692.0432315062692 202.93619569610559 693.5188470597707 203.74678096511195 694.7575893844278 204.8869595446199 695.996331709085 206.02713812412784 696.9262050427867 207.4306427815253 697.8560783764883 208.83414743892277 698.4230384373898 210.41940641757844 698.9899984982912 212.0046653962341 699.1610935410145 213.6795433698254 699.3321885837377 215.35442134341673 699.0974745563607 217.02157432542475 698.8627605289837 218.68872730743277 698.8629405019847 218.68805254419618 Z" fill="url(#dddraw-gradient)"></path><path d="M 788.371991490851 221.1756021939207 Q 788.371991490851 221.1756021939207 788.1564594400452 224.19466094189877 787.9409273892393 227.21371968987685 787.5789567342802 235.44407170918103 787.216986079321 243.6744237284852 786.8537724691947 253.3999363548828 786.4905588590684 263.12544898128044 785.5801999406298 272.6686070395184 784.6698410221911 282.2117650977563 783.6386027058413 292.1055383719471 782.6073643894916 301.99931164613787 781.1294693537594 311.32555045614083 779.6515743180272 320.65178926614374 779.0153226899683 329.57392896210774 778.3790710619096 338.4960686580717 777.5919038250383 347.67589525787264 776.8047365881671 356.85572185767364 776.4676394435443 366.03929853774775 776.1305422989215 375.2228752178218 776.0239032785175 383.75865043488375 775.9172642581136 392.29442565194563 775.9288760447259 401.5528757464974 775.9404878313384 410.8113258410492 776.0125647902177 419.05785359416734 776.0846417490969 427.30438134728547 776.7568211814537 430.6310765046574 777.4290006138104 433.95777166202936 777.4671184710862 437.10274700300715 777.5052363283619 440.247722343985 776.5371324410537 443.2402292746003 775.5690285537455 446.23273620521564 773.6960636544093 448.7594584598879 771.8230987550729 451.2861807145602 769.2413727630837 453.0825698062353 766.6596467710945 454.8789588979104 763.6394670793231 455.75693241448937 760.6192873875518 456.6349059310683 757.4768676069768 456.50253981360277 754.3344478264019 456.3701736961372 751.3988001375676 455.24132671206706 748.4631524487335 454.1124797279969 746.0416399395967 452.10534245454096 743.6201274304599 450.098205181085 741.9662830999445 447.42292542060693 740.312438769429 444.7476456601288 739.5994205555123 441.68432590975584 738.8864023415957 438.6210061593829 739.1888634394934 435.490376805617 739.491324537391 432.35974745185115 740.7775971903113 429.48958621443757 742.0638698432315 426.619424977024 744.1992809648705 424.31023849516885 746.3346920865094 422.0010520133137 749.0956635687378 420.49461272123324 751.8566350509661 418.9881734291528 754.9540924507688 418.4422059183893 758.0515498505715 417.8962384076258 761.1611885605399 418.3679056206775 764.2708272705083 418.8395728337292 767.0670672968438 420.2794910888816 769.8633073231794 421.7194093440341 772.0533815969889 423.97681881987126 774.2434558707985 426.23422829570836 775.5980630374909 429.0727776242119 776.9526702041832 431.91132695271534 777.329982535824 435.03381926988664 777.707294867465 438.15631158705787 777.0678076633308 441.2358211230312 776.4283204591966 444.3153306590045 774.8389881983684 447.02943195245183 773.2496559375402 449.7435332458992 770.8768821272697 451.80805917494354 768.5041083169991 453.87258510398783 765.5963230015732 455.0713792588763 762.6885376861471 456.2701734137647 759.5501867556715 456.47772173002954 756.4118358251958 456.6852700462943 753.3715054505354 455.8798421604351 750.3311750758751 455.0744142745759 747.7071886498263 453.34033869885445 745.0832022237776 451.606263123133 743.1502918178128 449.12509802807887 741.217381411848 446.64393293302476 740.1779232557105 443.67545695905403 739.1384650995731 440.70698098508336 739.138971290276 440.7098527752685 739.139477480979 440.7127245654535 738.4833129261577 436.75546931808447 737.8271483713364 432.79821407071535 737.7614930487675 423.4667110089491 737.6958377261988 414.1352079471829 737.9118306694635 404.97843056386694 738.1278236127282 395.821653180551 738.3650177182669 386.92910391865576 738.6022118238058 378.0365546567606 739.0545105384779 369.87106824008004 739.50680925315 361.7055818233994 740.3020321854212 353.1901690480767 741.0972551176924 344.674756272754 742.04895120163 336.27582667929084 743.0006472855677 327.8768970858277 744.2258412807566 319.4921608915398 745.4510352759457 311.10742469725193 747.0948556021201 302.6996625497899 748.7386759282944 294.29190040232777 750.2349517889033 286.08644587377535 751.7312276495124 277.88099134522287 753.4536993187942 268.47138504671943 755.1761709880759 259.06177874821606 756.2806765342934 250.19056006179102 757.385182080511 241.319341375366 758.5391313739561 232.60496320175338 759.6930806674013 223.89058502814075 760.1841041585876 220.90387813586003 760.675127649774 217.9171712435793 761.0713000042227 216.2837187059494 761.4674723586714 214.6502661683195 762.2430549142093 213.15909500890672 763.0186374697471 211.66792384949392 764.1285533318055 210.4057010061457 765.238469193864 209.14347816279752 766.6182100003912 208.18356408647458 767.9979508069183 207.22365001015166 769.5673259574119 206.62183495207123 771.1367011079054 206.0200198939908 772.804498444882 205.8112813736047 774.4722957818585 205.60254285321858 776.1415828457318 205.79901276313916 777.8108699096051 205.99548267305977 779.3846276577918 206.58574217289134 780.9583854059786 207.17600167272295 782.3451469642113 208.1257448526021 783.731908522444 209.07548803248127 784.8510752438015 210.32951577416992 785.9702419651591 211.5835435158586 786.7567678272123 213.06897166808957 787.5432936892656 214.55439982032055 787.9514657719574 216.18489522909363 788.3596378546491 217.81539063786673 788.3657331773554 219.49618883341554 788.3718285000616 221.17698702896436 788.3719099954562 221.17629461144253 Z" fill="url(#dddraw-gradient)"></path></svg>